<mxfile host="app.diagrams.net" modified="2024-05-09T13:56:04.391Z" agent="Mozilla/5.0 (Macintosh; Intel Mac OS X 10_15_7) AppleWebKit/605.1.15 (KHTML, like Gecko) Version/17.4.1 Safari/605.1.15" etag="i5TdGlZPTiImOd50vMqo" version="24.3.1" type="device">
  <diagram name="Page-1" id="Zxzcx3-kyhhhrxNMih8v">
    <mxGraphModel dx="4094" dy="1469" grid="1" gridSize="10" guides="1" tooltips="1" connect="1" arrows="1" fold="1" page="1" pageScale="1" pageWidth="1654" pageHeight="1169" math="0" shadow="0">
      <root>
        <mxCell id="0" />
        <mxCell id="1" parent="0" />
        <mxCell id="pR9ksMpfzsYGPP_Z9lRX-35" style="edgeStyle=orthogonalEdgeStyle;rounded=1;orthogonalLoop=1;jettySize=auto;html=1;endArrow=diamond;endFill=0;fontFamily=Verdana;strokeWidth=4;curved=0;" parent="1" source="pR9ksMpfzsYGPP_Z9lRX-1" target="pR9ksMpfzsYGPP_Z9lRX-5" edge="1">
          <mxGeometry relative="1" as="geometry">
            <Array as="points">
              <mxPoint x="-300" y="100" />
            </Array>
          </mxGeometry>
        </mxCell>
        <mxCell id="9DV0bIwS3v9bsD313Idi-14" value="Aggregation&lt;div style=&quot;font-size: 14px;&quot;&gt;(1 Movie: n Conversation)&lt;/div&gt;" style="edgeLabel;html=1;align=center;verticalAlign=middle;resizable=0;points=[];fontStyle=1;fontSize=14;fontFamily=Verdana;" parent="pR9ksMpfzsYGPP_Z9lRX-35" vertex="1" connectable="0">
          <mxGeometry x="0.7893" y="2" relative="1" as="geometry">
            <mxPoint x="-212" y="-12" as="offset" />
          </mxGeometry>
        </mxCell>
        <mxCell id="9DV0bIwS3v9bsD313Idi-15" style="edgeStyle=orthogonalEdgeStyle;rounded=1;orthogonalLoop=1;jettySize=auto;html=1;strokeWidth=4;curved=0;endArrow=diamond;endFill=0;fontFamily=Verdana;" parent="1" source="pR9ksMpfzsYGPP_Z9lRX-1" target="pR9ksMpfzsYGPP_Z9lRX-16" edge="1">
          <mxGeometry relative="1" as="geometry" />
        </mxCell>
        <mxCell id="9DV0bIwS3v9bsD313Idi-16" value="&lt;b style=&quot;font-size: 14px;&quot;&gt;&lt;font style=&quot;font-size: 14px;&quot;&gt;Aggregation&lt;/font&gt;&lt;/b&gt;&lt;div style=&quot;font-size: 14px;&quot;&gt;&lt;b style=&quot;font-size: 14px;&quot;&gt;&lt;font style=&quot;font-size: 14px;&quot;&gt;(1 Movie: n Character)&lt;/font&gt;&lt;/b&gt;&lt;/div&gt;" style="edgeLabel;html=1;align=center;verticalAlign=middle;resizable=0;points=[];fontSize=14;fontFamily=Verdana;" parent="9DV0bIwS3v9bsD313Idi-15" vertex="1" connectable="0">
          <mxGeometry x="-0.5448" y="1" relative="1" as="geometry">
            <mxPoint x="-1" y="30" as="offset" />
          </mxGeometry>
        </mxCell>
        <mxCell id="9DV0bIwS3v9bsD313Idi-22" style="edgeStyle=orthogonalEdgeStyle;rounded=1;orthogonalLoop=1;jettySize=auto;html=1;strokeWidth=4;curved=0;endArrow=diamond;endFill=0;entryX=0.5;entryY=0;entryDx=0;entryDy=0;fontFamily=Verdana;" parent="1" source="pR9ksMpfzsYGPP_Z9lRX-1" target="pR9ksMpfzsYGPP_Z9lRX-11" edge="1">
          <mxGeometry relative="1" as="geometry">
            <Array as="points">
              <mxPoint x="-745" y="140" />
            </Array>
          </mxGeometry>
        </mxCell>
        <mxCell id="9DV0bIwS3v9bsD313Idi-23" value="&lt;b style=&quot;font-size: 14px;&quot;&gt;&lt;font style=&quot;font-size: 14px;&quot;&gt;Aggregation&lt;/font&gt;&lt;/b&gt;&lt;div style=&quot;font-size: 14px;&quot;&gt;&lt;b style=&quot;font-size: 14px;&quot;&gt;&lt;font style=&quot;font-size: 14px;&quot;&gt;(1 Movie: n Line)&lt;/font&gt;&lt;/b&gt;&lt;/div&gt;" style="edgeLabel;html=1;align=center;verticalAlign=middle;resizable=0;points=[];fontSize=14;fontFamily=Verdana;" parent="9DV0bIwS3v9bsD313Idi-22" vertex="1" connectable="0">
          <mxGeometry x="0.6478" y="4" relative="1" as="geometry">
            <mxPoint x="-129" y="2" as="offset" />
          </mxGeometry>
        </mxCell>
        <mxCell id="pR9ksMpfzsYGPP_Z9lRX-1" value="Movie" style="swimlane;fontStyle=1;align=center;verticalAlign=top;childLayout=stackLayout;horizontal=1;startSize=26;horizontalStack=0;resizeParent=1;resizeParentMax=0;resizeLast=0;collapsible=1;marginBottom=0;whiteSpace=wrap;html=1;fontFamily=Verdana;strokeWidth=2;" parent="1" vertex="1">
          <mxGeometry x="-1500" y="50" width="380" height="390" as="geometry">
            <mxRectangle x="-1500" y="50" width="80" height="30" as="alternateBounds" />
          </mxGeometry>
        </mxCell>
        <mxCell id="pR9ksMpfzsYGPP_Z9lRX-2" value="&lt;div&gt;&amp;gt; id: str&lt;br&gt;&lt;/div&gt;&lt;div&gt;? ALL_MOVIES: [id: int]&lt;/div&gt;&lt;div&gt;&lt;br&gt;&lt;/div&gt;&lt;div&gt;+ title: str&lt;/div&gt;&lt;div&gt;+ release_year: int&lt;/div&gt;&lt;div&gt;+ rating: float&lt;/div&gt;&lt;div&gt;+ votes: int&lt;/div&gt;&lt;div&gt;+ genres: [str, ...]&lt;/div&gt;" style="text;strokeColor=none;fillColor=none;align=left;verticalAlign=top;spacingLeft=4;spacingRight=4;overflow=hidden;rotatable=0;points=[[0,0.5],[1,0.5]];portConstraint=eastwest;whiteSpace=wrap;html=1;fontFamily=Verdana;" parent="pR9ksMpfzsYGPP_Z9lRX-1" vertex="1">
          <mxGeometry y="26" width="380" height="124" as="geometry" />
        </mxCell>
        <mxCell id="pR9ksMpfzsYGPP_Z9lRX-3" value="" style="line;strokeWidth=1;fillColor=none;align=left;verticalAlign=middle;spacingTop=-1;spacingLeft=3;spacingRight=3;rotatable=0;labelPosition=right;points=[];portConstraint=eastwest;strokeColor=inherit;fontFamily=Verdana;" parent="pR9ksMpfzsYGPP_Z9lRX-1" vertex="1">
          <mxGeometry y="150" width="380" height="8" as="geometry" />
        </mxCell>
        <mxCell id="pR9ksMpfzsYGPP_Z9lRX-4" value="+ __init__(self, id, title, release_year, rating, votes, genres)&lt;div&gt;&lt;br&gt;&lt;div&gt;+ get_title(id): title&lt;/div&gt;&lt;div&gt;+ get_release_year(id): release_year&lt;/div&gt;&lt;div&gt;&lt;div&gt;+ get_rating(id): rating&lt;/div&gt;&lt;div&gt;&lt;div&gt;&lt;span style=&quot;background-color: initial;&quot;&gt;+ get_votes(id): votes&lt;/span&gt;&lt;/div&gt;&lt;/div&gt;&lt;div&gt;&lt;div&gt;+ get_genre_movie(id): genre&lt;/div&gt;&lt;div&gt;&lt;br&gt;&lt;/div&gt;&lt;div&gt;@ get_all_title([id]): [title]&lt;br&gt;&lt;/div&gt;&lt;div&gt;@ get_all_release_year([id]): [release_year]&lt;br&gt;&lt;/div&gt;&lt;div&gt;@ get_all_rating([id]): [rating]&lt;br&gt;&lt;/div&gt;&lt;div&gt;@ get_all_votes([id]): [votes]&lt;br&gt;&lt;/div&gt;&lt;div&gt;&lt;/div&gt;&lt;/div&gt;&lt;div&gt;@ get_all_genre([id]): [genre]&lt;span style=&quot;background-color: initial;&quot;&gt;&lt;br&gt;&lt;/span&gt;&lt;/div&gt;&lt;/div&gt;&lt;/div&gt;&lt;div&gt;&lt;br&gt;&lt;/div&gt;&lt;div&gt;&lt;div&gt;# To inherit?&amp;nbsp;&lt;/div&gt;&lt;div&gt;@ create_dataframe([id], [attribute]): pandas_df&lt;/div&gt;&lt;/div&gt;" style="text;strokeColor=none;fillColor=none;align=left;verticalAlign=top;spacingLeft=4;spacingRight=4;overflow=hidden;rotatable=0;points=[[0,0.5],[1,0.5]];portConstraint=eastwest;whiteSpace=wrap;html=1;fontFamily=Verdana;" parent="pR9ksMpfzsYGPP_Z9lRX-1" vertex="1">
          <mxGeometry y="158" width="380" height="232" as="geometry" />
        </mxCell>
        <mxCell id="pR9ksMpfzsYGPP_Z9lRX-15" style="edgeStyle=orthogonalEdgeStyle;rounded=1;orthogonalLoop=1;jettySize=auto;html=1;endArrow=diamond;endFill=1;fontFamily=Verdana;strokeWidth=4;curved=0;" parent="1" source="pR9ksMpfzsYGPP_Z9lRX-5" target="pR9ksMpfzsYGPP_Z9lRX-11" edge="1">
          <mxGeometry relative="1" as="geometry" />
        </mxCell>
        <mxCell id="pR9ksMpfzsYGPP_Z9lRX-5" value="Conversation" style="swimlane;fontStyle=1;align=center;verticalAlign=top;childLayout=stackLayout;horizontal=1;startSize=26;horizontalStack=0;resizeParent=1;resizeParentMax=0;resizeLast=0;collapsible=1;marginBottom=0;whiteSpace=wrap;html=1;fontFamily=Verdana;strokeWidth=2;" parent="1" vertex="1">
          <mxGeometry x="-480" y="210" width="410" height="430" as="geometry" />
        </mxCell>
        <mxCell id="pR9ksMpfzsYGPP_Z9lRX-6" value="&lt;div&gt;&amp;gt; id: int&lt;br&gt;&lt;/div&gt;&lt;div&gt;&lt;div&gt;? ALL_CONVERSATIONS: [id: int]&lt;/div&gt;&lt;/div&gt;&lt;div&gt;&lt;br&gt;&lt;/div&gt;&lt;div&gt;+ characters_id: {&quot;character_1&quot;:str, &quot;character_2&quot;: str}&lt;/div&gt;&lt;div&gt;+ movie_id: str&lt;br&gt;&lt;/div&gt;&lt;div&gt;+ lines: [str, str, ...] #Key, not line content&lt;br&gt;&lt;/div&gt;" style="text;strokeColor=none;fillColor=none;align=left;verticalAlign=top;spacingLeft=4;spacingRight=4;overflow=hidden;rotatable=0;points=[[0,0.5],[1,0.5]];portConstraint=eastwest;whiteSpace=wrap;html=1;fontFamily=Verdana;" parent="pR9ksMpfzsYGPP_Z9lRX-5" vertex="1">
          <mxGeometry y="26" width="410" height="104" as="geometry" />
        </mxCell>
        <mxCell id="pR9ksMpfzsYGPP_Z9lRX-7" value="" style="line;strokeWidth=1;fillColor=none;align=left;verticalAlign=middle;spacingTop=-1;spacingLeft=3;spacingRight=3;rotatable=0;labelPosition=right;points=[];portConstraint=eastwest;strokeColor=inherit;fontFamily=Verdana;" parent="pR9ksMpfzsYGPP_Z9lRX-5" vertex="1">
          <mxGeometry y="130" width="410" height="8" as="geometry" />
        </mxCell>
        <mxCell id="pR9ksMpfzsYGPP_Z9lRX-8" value="&lt;div&gt;&lt;div&gt;+ __init__(self, id, character_id, movie_id , lines)&lt;/div&gt;&lt;div&gt;&lt;br&gt;&lt;/div&gt;&lt;div&gt;+ get_characters_id(id): {&quot;character_1&quot;: str, &quot;character_2&quot;: str}&lt;/div&gt;&lt;div&gt;+ get_movie_id(id): move_id&lt;/div&gt;&lt;div&gt;+ get_lines(id): [lines]&lt;/div&gt;&lt;div&gt;&lt;br&gt;&lt;/div&gt;&lt;div&gt;@ get_all_characters_ids([id]): [characters_id]&lt;/div&gt;&lt;div&gt;@ get_all_movie_ids([id]): [movie_id]&lt;/div&gt;&lt;div&gt;@ get_all_lines([id]): [lines]&lt;/div&gt;&lt;div&gt;&lt;br&gt;&lt;/div&gt;&lt;div&gt;@ get_all_conversations(): [id]&lt;br&gt;&lt;/div&gt;&lt;div&gt;&lt;br&gt;&lt;/div&gt;&lt;div&gt;&lt;div&gt;# To inherit?&amp;nbsp;&lt;/div&gt;&lt;div&gt;@ create_dataframe([id], [attribute]): pandas_df&lt;/div&gt;&lt;/div&gt;&lt;div&gt;&lt;br&gt;&lt;/div&gt;&lt;div&gt;# TBD: According to code provided&lt;/div&gt;&lt;div&gt;# + Dataframe(cls)&lt;/div&gt;&lt;/div&gt;# + SentimentDynamics(cls, sentiment_data)&lt;div&gt;# + SpeechAnalysis(cls)&lt;br&gt;&lt;/div&gt;" style="text;strokeColor=none;fillColor=none;align=left;verticalAlign=top;spacingLeft=4;spacingRight=4;overflow=hidden;rotatable=0;points=[[0,0.5],[1,0.5]];portConstraint=eastwest;whiteSpace=wrap;html=1;fontFamily=Verdana;" parent="pR9ksMpfzsYGPP_Z9lRX-5" vertex="1">
          <mxGeometry y="138" width="410" height="292" as="geometry" />
        </mxCell>
        <mxCell id="pR9ksMpfzsYGPP_Z9lRX-11" value="Line" style="swimlane;fontStyle=1;align=center;verticalAlign=top;childLayout=stackLayout;horizontal=1;startSize=26;horizontalStack=0;resizeParent=1;resizeParentMax=0;resizeLast=0;collapsible=1;marginBottom=0;whiteSpace=wrap;html=1;fontFamily=Verdana;strokeWidth=2;" parent="1" vertex="1">
          <mxGeometry x="-910" y="210" width="330" height="340" as="geometry" />
        </mxCell>
        <mxCell id="pR9ksMpfzsYGPP_Z9lRX-12" value="&lt;div&gt;&amp;gt; id: str&lt;br&gt;&lt;/div&gt;&lt;div&gt;? ALL_LINES: [id: int]&lt;/div&gt;&lt;div&gt;&lt;br&gt;&lt;/div&gt;&lt;div&gt;+ character_id: str&lt;br&gt;&lt;/div&gt;&lt;div&gt;+ movie_id: str&lt;/div&gt;&lt;div&gt;+ content: str&lt;/div&gt;" style="text;strokeColor=none;fillColor=none;align=left;verticalAlign=top;spacingLeft=4;spacingRight=4;overflow=hidden;rotatable=0;points=[[0,0.5],[1,0.5]];portConstraint=eastwest;whiteSpace=wrap;html=1;fontFamily=Verdana;strokeWidth=2;" parent="pR9ksMpfzsYGPP_Z9lRX-11" vertex="1">
          <mxGeometry y="26" width="330" height="94" as="geometry" />
        </mxCell>
        <mxCell id="pR9ksMpfzsYGPP_Z9lRX-13" value="" style="line;strokeWidth=1;fillColor=none;align=left;verticalAlign=middle;spacingTop=-1;spacingLeft=3;spacingRight=3;rotatable=0;labelPosition=right;points=[];portConstraint=eastwest;strokeColor=inherit;fontFamily=Verdana;" parent="pR9ksMpfzsYGPP_Z9lRX-11" vertex="1">
          <mxGeometry y="120" width="330" height="8" as="geometry" />
        </mxCell>
        <mxCell id="pR9ksMpfzsYGPP_Z9lRX-14" value="&lt;div&gt;+ __init__(self, id, character_id, movie_id, content)&lt;/div&gt;&lt;div&gt;&lt;br&gt;&lt;/div&gt;+ get_character_id(id): character_id&lt;div&gt;+ get_movie_id(id): movie_id&lt;/div&gt;&lt;div&gt;+ get_content(id): content&lt;/div&gt;&lt;div&gt;&lt;br&gt;&lt;/div&gt;&lt;div&gt;@ get_all_character_ids([id]): [character_id]&lt;/div&gt;&lt;div&gt;@ get_all_movie_ids([id]): [movie_id]&lt;/div&gt;&lt;div&gt;@ get_all_content([id]): [content]&lt;/div&gt;&lt;div&gt;&lt;br&gt;&lt;/div&gt;&lt;div&gt;@ get_all_lines(): [id]&lt;br&gt;&lt;/div&gt;&lt;div&gt;&lt;br&gt;&lt;/div&gt;&lt;div&gt;# To inherit?&amp;nbsp;&lt;/div&gt;&lt;div&gt;@ create_dataframe([id], [attribute]): pandas_df&lt;/div&gt;" style="text;strokeColor=none;fillColor=none;align=left;verticalAlign=top;spacingLeft=4;spacingRight=4;overflow=hidden;rotatable=0;points=[[0,0.5],[1,0.5]];portConstraint=eastwest;whiteSpace=wrap;html=1;fontFamily=Verdana;" parent="pR9ksMpfzsYGPP_Z9lRX-11" vertex="1">
          <mxGeometry y="128" width="330" height="212" as="geometry" />
        </mxCell>
        <mxCell id="9DV0bIwS3v9bsD313Idi-17" style="edgeStyle=orthogonalEdgeStyle;rounded=1;orthogonalLoop=1;jettySize=auto;html=1;strokeWidth=4;endArrow=diamond;endFill=0;fontFamily=Verdana;" parent="1" source="pR9ksMpfzsYGPP_Z9lRX-16" edge="1" target="pR9ksMpfzsYGPP_Z9lRX-8">
          <mxGeometry relative="1" as="geometry">
            <mxPoint x="-1360" y="730" as="sourcePoint" />
            <mxPoint x="-304.99999999999955" y="505.0000000000002" as="targetPoint" />
            <Array as="points">
              <mxPoint x="-1310" y="760" />
              <mxPoint x="-305" y="760" />
            </Array>
          </mxGeometry>
        </mxCell>
        <mxCell id="9DV0bIwS3v9bsD313Idi-18" value="&lt;b style=&quot;font-size: 14px;&quot;&gt;&lt;font style=&quot;font-size: 14px;&quot;&gt;Aggregation&lt;/font&gt;&lt;/b&gt;&lt;div style=&quot;font-size: 14px;&quot;&gt;&lt;b style=&quot;font-size: 14px;&quot;&gt;&lt;font style=&quot;font-size: 14px;&quot;&gt;(2 Character: 1 Conversation)&lt;/font&gt;&lt;/b&gt;&lt;/div&gt;" style="edgeLabel;html=1;align=center;verticalAlign=middle;resizable=0;points=[];fontSize=14;fontFamily=Verdana;" parent="9DV0bIwS3v9bsD313Idi-17" vertex="1" connectable="0">
          <mxGeometry x="0.8465" y="-1" relative="1" as="geometry">
            <mxPoint as="offset" />
          </mxGeometry>
        </mxCell>
        <mxCell id="9DV0bIwS3v9bsD313Idi-19" style="edgeStyle=orthogonalEdgeStyle;rounded=1;orthogonalLoop=1;jettySize=auto;html=1;endArrow=diamond;endFill=0;strokeWidth=4;curved=0;fontFamily=Verdana;" parent="1" source="pR9ksMpfzsYGPP_Z9lRX-16" target="pR9ksMpfzsYGPP_Z9lRX-11" edge="1">
          <mxGeometry relative="1" as="geometry">
            <Array as="points">
              <mxPoint x="-1040" y="560" />
              <mxPoint x="-1040" y="375" />
            </Array>
          </mxGeometry>
        </mxCell>
        <mxCell id="9DV0bIwS3v9bsD313Idi-20" value="&lt;b style=&quot;font-size: 14px;&quot;&gt;&lt;font style=&quot;font-size: 14px;&quot;&gt;Aggregation&lt;/font&gt;&lt;/b&gt;&lt;div style=&quot;font-size: 14px;&quot;&gt;&lt;b style=&quot;font-size: 14px;&quot;&gt;&lt;font style=&quot;font-size: 14px;&quot;&gt;(1 Character: n Line)&lt;/font&gt;&lt;/b&gt;&lt;/div&gt;" style="edgeLabel;html=1;align=center;verticalAlign=middle;resizable=0;points=[];fontSize=14;fontFamily=Verdana;" parent="9DV0bIwS3v9bsD313Idi-19" vertex="1" connectable="0">
          <mxGeometry x="0.7559" y="1" relative="1" as="geometry">
            <mxPoint x="-90" y="76" as="offset" />
          </mxGeometry>
        </mxCell>
        <mxCell id="pR9ksMpfzsYGPP_Z9lRX-16" value="Character" style="swimlane;fontStyle=1;align=center;verticalAlign=top;childLayout=stackLayout;horizontal=1;startSize=26;horizontalStack=0;resizeParent=1;resizeParentMax=0;resizeLast=0;collapsible=1;marginBottom=0;whiteSpace=wrap;html=1;fontFamily=Verdana;strokeWidth=2;" parent="1" vertex="1">
          <mxGeometry x="-1510" y="510" width="400" height="410" as="geometry" />
        </mxCell>
        <mxCell id="pR9ksMpfzsYGPP_Z9lRX-17" value="&lt;div&gt;&amp;gt; id: str&lt;br&gt;&lt;/div&gt;&lt;div&gt;? ALL_CHARACTERS: [id: int]&lt;/div&gt;&lt;div&gt;&lt;br&gt;&lt;/div&gt;&lt;div&gt;+ name: str&lt;/div&gt;&lt;div&gt;+ movie_id: str&lt;/div&gt;&lt;div&gt;+ gender: str #May be &#39;?&#39; for unknown&lt;/div&gt;&lt;div&gt;+ credits_position:&amp;nbsp;&lt;span style=&quot;background-color: initial;&quot;&gt;str #May be &#39;?&#39; for unknown&lt;/span&gt;&lt;/div&gt;" style="text;strokeColor=none;fillColor=none;align=left;verticalAlign=top;spacingLeft=4;spacingRight=4;overflow=hidden;rotatable=0;points=[[0,0.5],[1,0.5]];portConstraint=eastwest;whiteSpace=wrap;html=1;fontFamily=Verdana;" parent="pR9ksMpfzsYGPP_Z9lRX-16" vertex="1">
          <mxGeometry y="26" width="400" height="124" as="geometry" />
        </mxCell>
        <mxCell id="pR9ksMpfzsYGPP_Z9lRX-18" value="" style="line;strokeWidth=1;fillColor=none;align=left;verticalAlign=middle;spacingTop=-1;spacingLeft=3;spacingRight=3;rotatable=0;labelPosition=right;points=[];portConstraint=eastwest;strokeColor=inherit;fontFamily=Verdana;" parent="pR9ksMpfzsYGPP_Z9lRX-16" vertex="1">
          <mxGeometry y="150" width="400" height="8" as="geometry" />
        </mxCell>
        <mxCell id="pR9ksMpfzsYGPP_Z9lRX-19" value="&lt;div&gt;+ __init__(self, id, name, movie_id, gender, credits_position)&lt;/div&gt;&lt;div&gt;&lt;br&gt;&lt;/div&gt;+ get_name(id): name&amp;nbsp;&lt;div&gt;+ get_movie_id(id): movie_id&lt;/div&gt;&lt;div&gt;+ get_gender(id): gender&amp;nbsp;&lt;/div&gt;&lt;div&gt;+ get_credits_position(id): credits_position&amp;nbsp;&lt;/div&gt;&lt;div&gt;&lt;br&gt;&lt;/div&gt;&lt;div&gt;@ get_all_name([id]): [name]&lt;br&gt;&lt;/div&gt;&lt;div&gt;@ get_all_movie_id([id]): [movie_id]&lt;br&gt;&lt;/div&gt;&lt;div&gt;@ get_all_gender([id]): [gender]&lt;br&gt;&lt;/div&gt;&lt;div&gt;@ get_all_credits_position([id]): [credits_position]&lt;/div&gt;&lt;div&gt;&lt;br&gt;&lt;/div&gt;&lt;div&gt;@ get_all_characters(): [id]&lt;/div&gt;&lt;div&gt;&lt;br&gt;&lt;/div&gt;&lt;div&gt;&lt;div&gt;# To inherit?&amp;nbsp;&lt;/div&gt;&lt;div&gt;@ create_dataframe([id], [attribute]): pandas_df&lt;/div&gt;&lt;/div&gt;" style="text;strokeColor=none;fillColor=none;align=left;verticalAlign=top;spacingLeft=4;spacingRight=4;overflow=hidden;rotatable=0;points=[[0,0.5],[1,0.5]];portConstraint=eastwest;whiteSpace=wrap;html=1;fontFamily=Verdana;" parent="pR9ksMpfzsYGPP_Z9lRX-16" vertex="1">
          <mxGeometry y="158" width="400" height="252" as="geometry" />
        </mxCell>
        <mxCell id="9DV0bIwS3v9bsD313Idi-26" style="edgeStyle=orthogonalEdgeStyle;rounded=1;orthogonalLoop=1;jettySize=auto;html=1;strokeWidth=4;curved=0;endArrow=none;endFill=0;fontFamily=Verdana;" parent="1" source="pR9ksMpfzsYGPP_Z9lRX-22" target="pR9ksMpfzsYGPP_Z9lRX-1" edge="1">
          <mxGeometry relative="1" as="geometry">
            <Array as="points">
              <mxPoint x="-1590" y="995" />
              <mxPoint x="-1590" y="170" />
            </Array>
          </mxGeometry>
        </mxCell>
        <mxCell id="9DV0bIwS3v9bsD313Idi-34" value="Association&lt;div style=&quot;font-size: 14px;&quot;&gt;(1 Graph: n Movie)&lt;/div&gt;" style="edgeLabel;html=1;align=center;verticalAlign=middle;resizable=0;points=[];fontStyle=1;fontSize=14;fontFamily=Verdana;" parent="9DV0bIwS3v9bsD313Idi-26" vertex="1" connectable="0">
          <mxGeometry x="0.6968" y="1" relative="1" as="geometry">
            <mxPoint x="21" y="143" as="offset" />
          </mxGeometry>
        </mxCell>
        <mxCell id="9DV0bIwS3v9bsD313Idi-27" style="edgeStyle=orthogonalEdgeStyle;rounded=1;orthogonalLoop=1;jettySize=auto;html=1;strokeWidth=4;curved=0;endArrow=none;endFill=0;fontFamily=Verdana;" parent="1" source="pR9ksMpfzsYGPP_Z9lRX-22" target="pR9ksMpfzsYGPP_Z9lRX-16" edge="1">
          <mxGeometry relative="1" as="geometry">
            <Array as="points">
              <mxPoint x="-1540" y="960" />
              <mxPoint x="-1540" y="584" />
            </Array>
          </mxGeometry>
        </mxCell>
        <mxCell id="9DV0bIwS3v9bsD313Idi-33" value="Association&lt;div style=&quot;font-size: 14px;&quot;&gt;(1 Graph: n Character)&lt;/div&gt;" style="edgeLabel;html=1;align=center;verticalAlign=middle;resizable=0;points=[];fontStyle=1;fontSize=14;fontFamily=Verdana;" parent="9DV0bIwS3v9bsD313Idi-27" vertex="1" connectable="0">
          <mxGeometry x="0.593" y="-4" relative="1" as="geometry">
            <mxPoint x="156" y="201" as="offset" />
          </mxGeometry>
        </mxCell>
        <mxCell id="9DV0bIwS3v9bsD313Idi-28" style="edgeStyle=orthogonalEdgeStyle;rounded=1;orthogonalLoop=1;jettySize=auto;html=1;strokeWidth=4;curved=0;endArrow=none;endFill=0;fontFamily=Verdana;" parent="1" source="pR9ksMpfzsYGPP_Z9lRX-22" target="pR9ksMpfzsYGPP_Z9lRX-5" edge="1">
          <mxGeometry relative="1" as="geometry">
            <Array as="points">
              <mxPoint x="-40" y="995" />
              <mxPoint x="-40" y="400" />
            </Array>
            <mxPoint x="-610" y="995.0285714285715" as="sourcePoint" />
            <mxPoint x="-40" y="555" as="targetPoint" />
          </mxGeometry>
        </mxCell>
        <mxCell id="9DV0bIwS3v9bsD313Idi-32" value="Association&lt;div style=&quot;font-size: 14px;&quot;&gt;(1 Graph: n Conversation)&lt;/div&gt;" style="edgeLabel;html=1;align=center;verticalAlign=middle;resizable=0;points=[];fontStyle=1;fontSize=14;fontFamily=Verdana;" parent="9DV0bIwS3v9bsD313Idi-28" vertex="1" connectable="0">
          <mxGeometry x="0.6466" relative="1" as="geometry">
            <mxPoint x="-40" y="234" as="offset" />
          </mxGeometry>
        </mxCell>
        <mxCell id="9DV0bIwS3v9bsD313Idi-30" style="edgeStyle=orthogonalEdgeStyle;rounded=1;orthogonalLoop=1;jettySize=auto;html=1;strokeWidth=4;curved=0;jumpStyle=arc;endArrow=none;endFill=0;jumpSize=15;fontFamily=Verdana;" parent="1" source="pR9ksMpfzsYGPP_Z9lRX-22" target="pR9ksMpfzsYGPP_Z9lRX-11" edge="1">
          <mxGeometry relative="1" as="geometry">
            <Array as="points">
              <mxPoint x="-630" y="960" />
              <mxPoint x="-630" y="705" />
              <mxPoint x="-745" y="705" />
            </Array>
          </mxGeometry>
        </mxCell>
        <mxCell id="9DV0bIwS3v9bsD313Idi-31" value="Association&lt;div style=&quot;font-size: 14px;&quot;&gt;(1 Graph: n Line)&lt;/div&gt;" style="edgeLabel;html=1;align=center;verticalAlign=middle;resizable=0;points=[];fontStyle=1;fontSize=14;fontFamily=Verdana;" parent="9DV0bIwS3v9bsD313Idi-30" vertex="1" connectable="0">
          <mxGeometry x="0.771" y="1" relative="1" as="geometry">
            <mxPoint y="-1" as="offset" />
          </mxGeometry>
        </mxCell>
        <mxCell id="pR9ksMpfzsYGPP_Z9lRX-22" value="BaseGraph(ABC)" style="swimlane;fontStyle=1;align=center;verticalAlign=top;childLayout=stackLayout;horizontal=1;startSize=26;horizontalStack=0;resizeParent=1;resizeParentMax=0;resizeLast=0;collapsible=1;marginBottom=0;whiteSpace=wrap;html=1;fontFamily=Verdana;strokeWidth=2;" parent="1" vertex="1">
          <mxGeometry x="-940" y="920" width="350" height="210" as="geometry" />
        </mxCell>
        <mxCell id="PQ43-9yyCIg85SZHEQiv-9" value="&amp;nbsp;+ title: str&lt;div&gt;&amp;nbsp;+ xlabel: str&lt;br&gt;&amp;nbsp;+ ylabel: str&lt;/div&gt;" style="html=1;whiteSpace=wrap;align=left;fillColor=none;fontFamily=Verdana;" parent="pR9ksMpfzsYGPP_Z9lRX-22" vertex="1">
          <mxGeometry y="26" width="350" height="54" as="geometry" />
        </mxCell>
        <mxCell id="pR9ksMpfzsYGPP_Z9lRX-25" value="&lt;div&gt;+ __init__(self, title, xlabel, ylabel)&lt;/div&gt;&lt;div&gt;&lt;br&gt;&lt;/div&gt;&lt;div&gt;@ create_graph(self, data, graph_type, **kwargs)&lt;/div&gt;&lt;div&gt;&lt;br&gt;&lt;/div&gt;&lt;div&gt;+ create_scatterplot(self, data, xlabel, ylabel)&lt;/div&gt;&lt;div&gt;+ create_histogram(self, data, column)&lt;/div&gt;&lt;div&gt;+ create_heatmap(self, data, xlabel, ylabel, value)&lt;/div&gt;" style="text;strokeColor=none;fillColor=none;align=left;verticalAlign=top;spacingLeft=4;spacingRight=4;overflow=hidden;rotatable=0;points=[[0,0.5],[1,0.5]];portConstraint=eastwest;whiteSpace=wrap;html=1;fontFamily=Verdana;" parent="pR9ksMpfzsYGPP_Z9lRX-22" vertex="1">
          <mxGeometry y="80" width="350" height="130" as="geometry" />
        </mxCell>
        <mxCell id="86KFAWvBCUm0rwUJxveK-2" value="ReadData" style="swimlane;fontStyle=1;align=center;verticalAlign=top;childLayout=stackLayout;horizontal=1;startSize=26;horizontalStack=0;resizeParent=1;resizeParentMax=0;resizeLast=0;collapsible=1;marginBottom=0;whiteSpace=wrap;html=1;fontFamily=Verdana;strokeWidth=2;sketch=1;curveFitting=1;jiggle=2;" vertex="1" parent="1">
          <mxGeometry x="100" y="130" width="380" height="210" as="geometry">
            <mxRectangle x="-1500" y="50" width="80" height="30" as="alternateBounds" />
          </mxGeometry>
        </mxCell>
        <mxCell id="86KFAWvBCUm0rwUJxveK-3" value="&lt;div&gt;+ data&lt;/div&gt;" style="text;strokeColor=none;fillColor=none;align=left;verticalAlign=top;spacingLeft=4;spacingRight=4;overflow=hidden;rotatable=0;points=[[0,0.5],[1,0.5]];portConstraint=eastwest;whiteSpace=wrap;html=1;fontFamily=Verdana;" vertex="1" parent="86KFAWvBCUm0rwUJxveK-2">
          <mxGeometry y="26" width="380" height="64" as="geometry" />
        </mxCell>
        <mxCell id="86KFAWvBCUm0rwUJxveK-4" value="" style="line;strokeWidth=1;fillColor=none;align=left;verticalAlign=middle;spacingTop=-1;spacingLeft=3;spacingRight=3;rotatable=0;labelPosition=right;points=[];portConstraint=eastwest;strokeColor=inherit;fontFamily=Verdana;" vertex="1" parent="86KFAWvBCUm0rwUJxveK-2">
          <mxGeometry y="90" width="380" height="8" as="geometry" />
        </mxCell>
        <mxCell id="86KFAWvBCUm0rwUJxveK-5" value="@ get_data(data_type): data&lt;div&gt;&lt;br&gt;&lt;/div&gt;&lt;div&gt;+ get_conversation(): data&lt;/div&gt;&lt;div&gt;+ get_movie(): data&lt;/div&gt;&lt;div&gt;+ get_line(): data&lt;/div&gt;&lt;div&gt;+ get_character(): data&lt;/div&gt;" style="text;strokeColor=none;fillColor=none;align=left;verticalAlign=top;spacingLeft=4;spacingRight=4;overflow=hidden;rotatable=0;points=[[0,0.5],[1,0.5]];portConstraint=eastwest;whiteSpace=wrap;html=1;fontFamily=Verdana;" vertex="1" parent="86KFAWvBCUm0rwUJxveK-2">
          <mxGeometry y="98" width="380" height="112" as="geometry" />
        </mxCell>
        <mxCell id="86KFAWvBCUm0rwUJxveK-6" value="CreateDataframe" style="swimlane;fontStyle=1;align=center;verticalAlign=top;childLayout=stackLayout;horizontal=1;startSize=26;horizontalStack=0;resizeParent=1;resizeParentMax=0;resizeLast=0;collapsible=1;marginBottom=0;whiteSpace=wrap;html=1;fontFamily=Verdana;strokeWidth=2;sketch=1;curveFitting=1;jiggle=2;" vertex="1" parent="1">
          <mxGeometry x="100" y="405" width="380" height="180" as="geometry">
            <mxRectangle x="-1500" y="50" width="80" height="30" as="alternateBounds" />
          </mxGeometry>
        </mxCell>
        <mxCell id="86KFAWvBCUm0rwUJxveK-7" value="&lt;div&gt;+ data&lt;/div&gt;" style="text;strokeColor=none;fillColor=none;align=left;verticalAlign=top;spacingLeft=4;spacingRight=4;overflow=hidden;rotatable=0;points=[[0,0.5],[1,0.5]];portConstraint=eastwest;whiteSpace=wrap;html=1;fontFamily=Verdana;" vertex="1" parent="86KFAWvBCUm0rwUJxveK-6">
          <mxGeometry y="26" width="380" height="64" as="geometry" />
        </mxCell>
        <mxCell id="86KFAWvBCUm0rwUJxveK-8" value="" style="line;strokeWidth=1;fillColor=none;align=left;verticalAlign=middle;spacingTop=-1;spacingLeft=3;spacingRight=3;rotatable=0;labelPosition=right;points=[];portConstraint=eastwest;strokeColor=inherit;fontFamily=Verdana;" vertex="1" parent="86KFAWvBCUm0rwUJxveK-6">
          <mxGeometry y="90" width="380" height="8" as="geometry" />
        </mxCell>
        <mxCell id="86KFAWvBCUm0rwUJxveK-9" value="+ get_data(): data" style="text;strokeColor=none;fillColor=none;align=left;verticalAlign=top;spacingLeft=4;spacingRight=4;overflow=hidden;rotatable=0;points=[[0,0.5],[1,0.5]];portConstraint=eastwest;whiteSpace=wrap;html=1;fontFamily=Verdana;" vertex="1" parent="86KFAWvBCUm0rwUJxveK-6">
          <mxGeometry y="98" width="380" height="82" as="geometry" />
        </mxCell>
      </root>
    </mxGraphModel>
  </diagram>
</mxfile>
